<svg id="Layer_1" data-name="Layer 1" xmlns="http://www.w3.org/2000/svg" xmlns:xlink="http://www.w3.org/1999/xlink" viewBox="0 0 295.86 479.19"><defs><style>.cls-1{fill:url(#linear-gradient);}.cls-2{fill:#ffa98c;}.cls-3{fill:url(#linear-gradient-2);}.cls-4{fill:url(#linear-gradient-3);}.cls-5{fill:url(#linear-gradient-4);}.cls-6{fill:url(#New_Gradient_Swatch_copy_25);}.cls-7{fill:url(#New_Gradient_Swatch_copy_25-2);}.cls-8{fill:url(#linear-gradient-5);}.Graphic-Style-3{fill:url(#New_Gradient_Swatch_copy_26);}.Graphic-Style-2{fill:url(#linear-gradient-6);}.cls-9{fill:url(#New_Gradient_Swatch_copy_25-3);}.cls-10{fill:url(#New_Gradient_Swatch_copy_25-4);}.cls-11{fill:url(#linear-gradient-7);}.cls-12{fill:url(#New_Gradient_Swatch_copy_25-5);}.cls-13{fill:url(#New_Gradient_Swatch_copy_25-6);}.cls-14{fill:url(#linear-gradient-9);}.cls-15{fill:url(#New_Gradient_Swatch_copy_25-7);}.cls-16{fill:url(#New_Gradient_Swatch_copy_25-8);}.cls-17{fill:url(#linear-gradient-11);}.cls-18{fill:#2af6ff;}.cls-19{fill:url(#linear-gradient-12);}.cls-20{fill:url(#linear-gradient-13);}.cls-21{fill:url(#linear-gradient-14);}.cls-22{fill:url(#linear-gradient-15);}.cls-23{fill:url(#linear-gradient-16);}.cls-24{fill:url(#linear-gradient-17);}.cls-25{fill:url(#linear-gradient-18);}.cls-26{fill:url(#linear-gradient-19);}.cls-27{fill:url(#linear-gradient-20);}.cls-28{fill:url(#linear-gradient-21);}.cls-29{fill:url(#linear-gradient-22);}.cls-30{fill:url(#linear-gradient-23);}.cls-31{fill:url(#linear-gradient-24);}.cls-32{fill:url(#linear-gradient-25);}.cls-33{fill:url(#linear-gradient-26);}.cls-34{fill:url(#linear-gradient-27);}.cls-35{fill:url(#linear-gradient-28);}.cls-36{fill:url(#linear-gradient-29);}.cls-37{fill:url(#linear-gradient-30);}.cls-38{fill:url(#linear-gradient-31);}.cls-39{fill:url(#linear-gradient-32);}</style><linearGradient id="linear-gradient" x1="245.71" y1="330.28" x2="177.97" y2="347.77" gradientUnits="userSpaceOnUse"><stop offset="0.02" stop-color="#ffa98c"/><stop offset="0.07" stop-color="#c46aa7"/><stop offset="0.13" stop-color="#9033c0"/><stop offset="0.16" stop-color="#7c1dc9"/><stop offset="0.32" stop-color="#6e41d2"/><stop offset="0.67" stop-color="#4c9be8"/><stop offset="1" stop-color="#2af6ff"/></linearGradient><linearGradient id="linear-gradient-2" x1="235.36" y1="358.36" x2="167.62" y2="375.85" xlink:href="#linear-gradient"/><linearGradient id="linear-gradient-3" x1="83.81" y1="321.55" x2="122.23" y2="347.42" xlink:href="#linear-gradient"/><linearGradient id="linear-gradient-4" x1="83.99" y1="349.27" x2="122.42" y2="375.13" xlink:href="#linear-gradient"/><linearGradient id="New_Gradient_Swatch_copy_25" x1="181.62" y1="435.38" x2="363.48" y2="380.92" gradientUnits="userSpaceOnUse"><stop offset="0" stop-color="#25054d"/><stop offset="1" stop-color="#45108a"/></linearGradient><linearGradient id="New_Gradient_Swatch_copy_25-2" x1="-6.19" y1="457.42" x2="232.97" y2="403.81" xlink:href="#New_Gradient_Swatch_copy_25"/><linearGradient id="linear-gradient-5" x1="228.08" y1="256.99" x2="133.23" y2="437.75" gradientUnits="userSpaceOnUse"><stop offset="0.74" stop-color="#45108a"/><stop offset="1" stop-color="#3746a3"/></linearGradient><linearGradient id="New_Gradient_Swatch_copy_26" x1="235.29" y1="438.08" x2="405.14" y2="387.22" gradientUnits="userSpaceOnUse"><stop offset="0.03" stop-color="#7c1dc9"/><stop offset="0.21" stop-color="#6e41d2"/><stop offset="0.62" stop-color="#4c9be8"/><stop offset="1" stop-color="#2af6ff"/></linearGradient><linearGradient id="linear-gradient-6" x1="100.63" y1="446.59" x2="324.01" y2="396.51" gradientUnits="userSpaceOnUse"><stop offset="0.04" stop-color="#138bbd"/><stop offset="0.23" stop-color="#169ac7"/><stop offset="0.59" stop-color="#1fc3df"/><stop offset="1" stop-color="#2af6ff"/></linearGradient><linearGradient id="New_Gradient_Swatch_copy_25-3" x1="181.32" y1="412" x2="367.19" y2="356.34" xlink:href="#New_Gradient_Swatch_copy_25"/><linearGradient id="New_Gradient_Swatch_copy_25-4" x1="-8.8" y1="434.53" x2="235.69" y2="379.73" xlink:href="#New_Gradient_Swatch_copy_25"/><linearGradient id="linear-gradient-7" x1="228.08" y1="229.71" x2="133.23" y2="410.47" xlink:href="#linear-gradient-5"/><linearGradient id="New_Gradient_Swatch_copy_25-5" x1="181.01" y1="381.1" x2="370.9" y2="324.24" xlink:href="#New_Gradient_Swatch_copy_25"/><linearGradient id="New_Gradient_Swatch_copy_25-6" x1="-11.4" y1="404.13" x2="238.41" y2="348.13" xlink:href="#New_Gradient_Swatch_copy_25"/><linearGradient id="linear-gradient-9" x1="228.08" y1="194.91" x2="133.23" y2="375.67" xlink:href="#linear-gradient-5"/><linearGradient id="New_Gradient_Swatch_copy_25-7" x1="180.65" y1="340.93" x2="375.36" y2="282.63" xlink:href="#New_Gradient_Swatch_copy_25"/><linearGradient id="New_Gradient_Swatch_copy_25-8" x1="-14.53" y1="364.55" x2="241.68" y2="307.12" xlink:href="#New_Gradient_Swatch_copy_25"/><linearGradient id="linear-gradient-11" x1="190.6" y1="221.48" x2="116.93" y2="361.89" gradientUnits="userSpaceOnUse"><stop offset="0.14" stop-color="#45108a"/><stop offset="1" stop-color="#3746a3"/></linearGradient><linearGradient id="linear-gradient-12" x1="180.45" y1="477.67" x2="171.59" y2="340.96" xlink:href="#linear-gradient"/><linearGradient id="linear-gradient-13" x1="226.01" y1="477.01" x2="184.08" y2="377.89" xlink:href="#linear-gradient"/><linearGradient id="linear-gradient-14" x1="24.78" y1="422.23" x2="107.3" y2="351.29" xlink:href="#linear-gradient"/><linearGradient id="linear-gradient-15" x1="54.05" y1="456.07" x2="120.16" y2="397.49" xlink:href="#linear-gradient"/><linearGradient id="linear-gradient-16" x1="132.43" y1="466.69" x2="139.98" y2="360.34" xlink:href="#linear-gradient"/><linearGradient id="linear-gradient-17" x1="80.9" y1="480.01" x2="130.41" y2="419.66" xlink:href="#linear-gradient"/><linearGradient id="linear-gradient-18" x1="271.07" y1="412.07" x2="202.09" y2="343.83" xlink:href="#linear-gradient"/><linearGradient id="linear-gradient-19" x1="253.94" y1="443.59" x2="211.81" y2="396.47" xlink:href="#linear-gradient"/><linearGradient id="linear-gradient-20" x1="127.07" y1="62.5" x2="170.3" y2="303.78" xlink:href="#linear-gradient"/><linearGradient id="linear-gradient-21" x1="179.88" y1="93.63" x2="173.96" y2="288.72" xlink:href="#linear-gradient"/><linearGradient id="linear-gradient-22" x1="74.72" y1="100.45" x2="138.27" y2="267.47" xlink:href="#linear-gradient"/><linearGradient id="linear-gradient-23" x1="61.98" y1="147.52" x2="135.82" y2="200.68" xlink:href="#linear-gradient"/><linearGradient id="linear-gradient-24" x1="113.83" y1="115.65" x2="154.47" y2="290.42" xlink:href="#linear-gradient"/><linearGradient id="linear-gradient-25" x1="91.73" y1="110.53" x2="145.64" y2="110.53" xlink:href="#linear-gradient"/><linearGradient id="linear-gradient-26" x1="237.62" y1="94.42" x2="160.76" y2="254.41" xlink:href="#linear-gradient"/><linearGradient id="linear-gradient-27" x1="306.64" y1="210.52" x2="268.21" y2="229.74" gradientTransform="translate(128.21 -105.06) rotate(26.47)" xlink:href="#linear-gradient"/><linearGradient id="linear-gradient-28" x1="244.2" y1="66.6" x2="178.8" y2="163.04" xlink:href="#linear-gradient"/><linearGradient id="linear-gradient-29" x1="191.51" y1="51.84" x2="159.73" y2="114.28" xlink:href="#linear-gradient"/><linearGradient id="linear-gradient-30" x1="250.27" y1="145.4" x2="167.25" y2="206.49" xlink:href="#linear-gradient"/><linearGradient id="linear-gradient-31" x1="102.33" y1="190.4" x2="138.17" y2="242.13" xlink:href="#linear-gradient"/><linearGradient id="linear-gradient-32" x1="153.92" y1="30.27" x2="153.92" y2="95.06" xlink:href="#linear-gradient"/></defs><title>banner</title><polygon class="cls-1" points="207.5 395.38 196.41 388.84 196.41 340.01 188.46 324.86 188.46 289.82 189.94 289.82 189.94 324.5 197.88 339.65 197.88 387.99 207.49 393.65 256.61 363.45 257.38 364.71 207.5 395.38"/><path class="cls-2" d="M357.42,370.53a6.67,6.67,0,0,1-6,0c-1.67-1-1.68-2.52,0-3.48a6.67,6.67,0,0,1,6,0C359.07,368,359.08,369.57,357.42,370.53Z" transform="translate(-96.11 -5.81)"/><polygon class="cls-3" points="197.15 423.46 186.06 416.92 186.06 368.09 178.12 352.94 178.12 317.9 179.59 317.9 179.59 352.58 187.54 367.73 187.54 416.08 197.14 421.73 246.26 391.53 247.03 392.8 197.15 423.46"/><path class="cls-2" d="M347.07,398.61a6.64,6.64,0,0,1-6,0c-1.67-1-1.68-2.52,0-3.48a6.67,6.67,0,0,1,6,0C348.72,396.1,348.73,397.65,347.07,398.61Z" transform="translate(-96.11 -5.81)"/><polygon class="cls-4" points="97.81 395.81 97.42 395.57 50.06 366.3 50.84 365.04 97.82 394.08 119.24 381.22 119.24 350.76 135.5 324.53 135.5 289.88 136.98 289.88 136.98 324.95 120.72 351.19 120.72 382.06 97.81 395.81"/><path class="cls-2" d="M147.37,372.86a6.67,6.67,0,0,1-6,0c-1.67-1-1.68-2.52,0-3.48a6.67,6.67,0,0,1,6,0C149,370.34,149,371.9,147.37,372.86Z" transform="translate(-96.11 -5.81)"/><polygon class="cls-5" points="97.99 423.52 97.61 423.29 50.25 394.01 51.02 392.75 98 421.79 119.43 408.94 119.43 378.48 135.69 352.24 135.69 317.6 137.16 317.6 137.16 352.66 120.91 378.9 120.91 409.77 97.99 423.52"/><path class="cls-2" d="M147.55,400.57a6.64,6.64,0,0,1-6,0c-1.67-1-1.68-2.52,0-3.48a6.67,6.67,0,0,1,6,0C149.2,398.06,149.21,399.61,147.55,400.57Z" transform="translate(-96.11 -5.81)"/><polygon class="cls-6" points="153.16 449.35 153.16 462.45 237.73 413.13 237.73 400.03 153.16 449.35"/><polygon class="cls-7" points="153.21 449.35 153.21 462.45 68.36 412.99 68.36 399.94 153.21 449.35"/><polygon class="cls-8" points="68.36 399.94 153.21 449.35 237.73 400.03 152.79 350.57 68.36 399.94"/><polygon class="Graphic-Style-3" points="153.16 432.32 153.16 446.15 231.73 400.32 231.73 386.49 153.16 432.32"/><polygon class="Graphic-Style-2" points="153.2 432.32 153.2 446.15 74.36 400.19 74.36 386.41 153.2 432.32"/><polygon class="cls-9" points="153.16 422.07 153.16 442.79 237.73 393.47 237.73 372.75 153.16 422.07"/><polygon class="cls-10" points="153.21 422.07 153.21 442.79 68.36 393.33 68.36 372.66 153.21 422.07"/><polygon class="cls-11" points="68.36 372.66 153.21 422.07 237.73 372.75 152.79 323.29 68.36 372.66"/><polygon class="Graphic-Style-3" points="153.16 405.14 153.16 418.97 231.73 373.14 231.73 359.31 153.16 405.14"/><polygon class="Graphic-Style-2" points="153.2 405.14 153.2 418.97 74.36 373.01 74.36 359.23 153.2 405.14"/><polygon class="cls-12" points="153.16 387.27 153.16 415.61 237.73 366.29 237.73 337.95 153.16 387.27"/><polygon class="cls-13" points="153.21 387.27 153.21 415.61 68.36 366.15 68.36 337.86 153.21 387.27"/><polygon class="cls-14" points="68.36 337.86 153.21 387.27 237.73 337.95 152.79 288.49 68.36 337.86"/><polygon class="Graphic-Style-3" points="153.16 369.94 153.16 383.77 231.73 337.94 231.73 324.11 153.16 369.94"/><polygon class="Graphic-Style-2" points="153.2 369.94 153.2 383.77 74.36 337.81 74.36 324.03 153.2 369.94"/><polygon class="cls-15" points="153.16 342.42 153.16 379.9 237.73 330.58 237.73 293.1 153.16 342.42"/><polygon class="cls-16" points="153.21 342.42 153.21 379.9 68.36 330.44 68.36 293.01 153.21 342.42"/><polygon class="cls-17" points="68.36 293.01 153.21 342.42 237.73 293.1 152.79 243.63 68.36 293.01"/><path class="cls-18" d="M191,331.24c0,1.91-1.35,2.69-3,1.72a6.66,6.66,0,0,1-3-5.21c0-1.92,1.36-2.69,3-1.73A6.67,6.67,0,0,1,191,331.24Z" transform="translate(-96.11 -5.81)"/><path class="cls-18" d="M286.61,344.7a6.65,6.65,0,0,1-3,5.21c-1.67,1-3,.19-3-1.72a6.68,6.68,0,0,1,3-5.22C285.26,342,286.61,342.78,286.61,344.7Z" transform="translate(-96.11 -5.81)"/><path class="cls-18" d="M314.08,398.4a6.66,6.66,0,0,1-3,5.21c-1.67,1-3,.19-3-1.72a6.67,6.67,0,0,1,3-5.22C312.72,395.71,314.08,396.48,314.08,398.4Z" transform="translate(-96.11 -5.81)"/><polygon class="cls-19" points="193.45 475.77 162.47 457.19 162.55 425.79 186.74 375.32 186.74 340.63 188.22 340.63 188.22 375.65 188.14 375.8 163.95 426.27 163.95 456.36 194.21 474.5 193.45 475.77"/><path class="cls-18" d="M304.1,373.15a6.65,6.65,0,0,1-3,5.21c-1.67,1-3,.19-3-1.72a6.68,6.68,0,0,1,3-5.22C302.75,370.46,304.1,371.23,304.1,373.15Z" transform="translate(-96.11 -5.81)"/><polygon class="cls-20" points="239.33 475.62 184.64 443.52 184.64 434.39 184.76 434.21 204.23 403.72 204.23 369.08 205.71 369.08 205.71 404.15 205.59 404.33 186.12 434.82 186.12 442.68 239.32 473.9 249.15 467.96 249.92 469.22 239.33 475.62"/><polygon class="cls-21" points="53.84 431.04 53.45 430.8 6.09 401.53 6.87 400.27 53.85 429.31 75.27 416.45 75.27 385.99 91.53 359.75 91.53 325.11 93.01 325.11 93.01 360.18 76.75 386.41 76.75 417.29 53.84 431.04"/><path class="cls-2" d="M103.4,408.09a6.67,6.67,0,0,1-6,0c-1.67-1-1.68-2.52,0-3.48a6.67,6.67,0,0,1,6,0C105.05,405.57,105.05,407.13,103.4,408.09Z" transform="translate(-96.11 -5.81)"/><path class="cls-18" d="M211.34,388.14c0,1.92-1.35,2.69-3,1.72a6.65,6.65,0,0,1-3-5.21c0-1.92,1.35-2.69,3-1.73A6.67,6.67,0,0,1,211.34,388.14Z" transform="translate(-96.11 -5.81)"/><polygon class="cls-22" points="63.82 458.25 45.35 449.21 46 447.88 63.75 456.57 103.36 433.08 103.36 413.32 111.85 400.39 111.85 382.01 113.33 382.01 113.33 400.83 104.83 413.76 104.83 433.91 104.47 434.13 63.82 458.25"/><path class="cls-2" d="M142.22,456.1a6.65,6.65,0,0,1-6,0c-1.67-1-1.68-2.52,0-3.48a6.65,6.65,0,0,1,6,0C143.87,453.58,143.88,455.14,142.22,456.1Z" transform="translate(-96.11 -5.81)"/><path class="cls-18" d="M229.46,363.83c0,1.91-1.35,2.69-3,1.72a6.66,6.66,0,0,1-3-5.21c0-1.92,1.36-2.69,3-1.73A6.67,6.67,0,0,1,229.46,363.83Z" transform="translate(-96.11 -5.81)"/><path class="cls-18" d="M221.7,420c0,1.92-1.35,2.69-3,1.73a6.68,6.68,0,0,1-3-5.22c0-1.91,1.36-2.69,3-1.72A6.65,6.65,0,0,1,221.7,420Z" transform="translate(-96.11 -5.81)"/><polygon class="cls-23" points="128.05 466.38 127.3 465.11 142.15 456.36 142.15 426.24 129.59 393.34 129.59 358.49 131.07 358.49 131.07 393.21 143.63 426.11 143.63 457.19 128.05 466.38"/><path class="cls-2" d="M226.44,473.67a6.67,6.67,0,0,1-6,0c-1.67-1-1.68-2.52,0-3.48a6.67,6.67,0,0,1,6,0C228.09,471.15,228.1,472.71,226.44,473.67Z" transform="translate(-96.11 -5.81)"/><polygon class="cls-24" points="71.94 475.15 71.21 473.87 122.57 444.52 122.57 414.28 124.05 414.28 124.05 445.38 123.67 445.59 71.94 475.15"/><path class="cls-2" d="M170.34,482.44a6.67,6.67,0,0,1-6,0c-1.67-1-1.67-2.53,0-3.48a6.64,6.64,0,0,1,6,0C172,479.92,172,481.48,170.34,482.44Z" transform="translate(-96.11 -5.81)"/><path class="cls-2" d="M294.86,484.28a6.64,6.64,0,0,1-6,0c-1.67-1-1.67-2.52,0-3.48a6.7,6.7,0,0,1,6,0C296.51,481.77,296.52,483.33,294.86,484.28Z" transform="translate(-96.11 -5.81)"/><path class="cls-2" d="M368.08,438.84a6.68,6.68,0,0,1-6,0c-1.67-1-1.68-2.53,0-3.48a6.62,6.62,0,0,1,6,0C369.73,436.32,369.74,437.88,368.08,438.84Z" transform="translate(-96.11 -5.81)"/><path class="cls-2" d="M350,475a6.67,6.67,0,0,1-6,0c-1.67-1-1.68-2.52,0-3.48a6.64,6.64,0,0,1,6,0C351.61,472.52,351.62,474.08,350,475Z" transform="translate(-96.11 -5.81)"/><path class="cls-18" d="M321.65,322.53a6.65,6.65,0,0,1-3,5.21c-1.67,1-3,.19-3-1.72a6.68,6.68,0,0,1,3-5.22C320.3,319.84,321.65,320.61,321.65,322.53Z" transform="translate(-96.11 -5.81)"/><polygon class="cls-25" points="240.81 424.01 229.72 417.48 229.72 368.65 221.78 353.5 221.78 318.46 223.26 318.46 223.26 353.13 231.2 368.28 231.2 416.63 240.8 422.29 289.92 392.08 290.69 393.35 240.81 424.01"/><path class="cls-2" d="M390.73,399.17a6.68,6.68,0,0,1-6,0c-1.67-1-1.68-2.53,0-3.48a6.62,6.62,0,0,1,6,0C392.38,396.65,392.39,398.21,390.73,399.17Z" transform="translate(-96.11 -5.81)"/><polygon class="cls-26" points="268.58 432.29 267.85 431 245.68 443.73 215.44 426.17 215.44 395.93 213.96 395.93 213.96 427.02 245.3 445.22 246.04 445.22 268.58 432.29"/><polygon class="cls-27" points="173.35 305.25 171.87 305.25 171.87 296.07 152.48 285.07 152.48 132.27 128.78 96.36 128.79 61.8 130.26 61.8 130.25 95.92 153.95 131.83 153.95 284.21 173.35 295.21 173.35 305.25"/><polygon class="cls-28" points="195.02 288.98 193.54 288.98 193.54 281.56 175.82 271.23 157.12 282.34 157.12 149.53 157.27 149.34 197.75 94.55 198.94 95.43 158.6 150.02 158.6 279.74 175.82 269.51 195.02 280.71 195.02 288.98"/><polygon class="cls-29" points="113.79 276.06 112.31 276.06 112.31 249.03 142.95 266.42 142.95 202.04 125.42 165.34 75.34 142.47 75.23 142.35 47.23 109.99 48.35 109.02 76.24 141.26 126.53 164.22 144.43 201.87 144.43 268.96 113.79 251.57 113.79 276.06"/><polygon class="cls-30" points="130.77 205.6 119.77 181.91 57.48 153.41 58.09 152.06 120.88 180.79 132.11 204.98 130.77 205.6"/><polygon class="cls-31" points="135.52 296.04 134.04 296.04 134.04 284.37 147.77 276.98 147.77 174.85 136.19 151.12 111.99 141.82 93.14 119.81 94.26 118.84 112.87 140.58 137.26 149.95 149.25 174.51 149.25 277.86 135.52 285.25 135.52 296.04"/><polygon class="cls-32" points="144.31 144.47 130.99 117.32 122.82 114.01 91.73 77.55 92.86 76.59 123.71 112.78 132.07 116.17 145.64 143.82 144.31 144.47"/><circle class="cls-18" cx="153.92" cy="94.96" r="3.49"/><path class="cls-2" d="M320.32,219.36a15.74,15.74,0,1,1,15.74-15.74A15.76,15.76,0,0,1,320.32,219.36Zm0-30a14.27,14.27,0,1,0,14.26,14.26A14.28,14.28,0,0,0,320.32,189.36Z" transform="translate(-96.11 -5.81)"/><path class="cls-2" d="M178.43,210.77A15.74,15.74,0,1,1,194.17,195,15.76,15.76,0,0,1,178.43,210.77Zm0-30A14.26,14.26,0,1,0,192.69,195,14.28,14.28,0,0,0,178.43,180.77Z" transform="translate(-96.11 -5.81)"/><path class="cls-2" d="M135.08,120.05a15.74,15.74,0,1,1,15.74-15.74A15.76,15.76,0,0,1,135.08,120.05Zm0-30a14.27,14.27,0,1,0,14.26,14.26A14.27,14.27,0,0,0,135.08,90.05Z" transform="translate(-96.11 -5.81)"/><path class="cls-2" d="M182,128.36a15.74,15.74,0,1,1,15.74-15.74A15.76,15.76,0,0,1,182,128.36Zm0-30a14.26,14.26,0,1,0,14.27,14.26A14.27,14.27,0,0,0,182,98.36Z" transform="translate(-96.11 -5.81)"/><path class="cls-2" d="M139.12,169.07a15.74,15.74,0,1,1,15.74-15.74A15.76,15.76,0,0,1,139.12,169.07Zm0-30a14.27,14.27,0,1,0,14.26,14.27A14.28,14.28,0,0,0,139.12,139.06Z" transform="translate(-96.11 -5.81)"/><path class="cls-2" d="M178.7,86.29a15.74,15.74,0,1,1,15.74-15.74A15.76,15.76,0,0,1,178.7,86.29Zm0-30A14.26,14.26,0,1,0,193,70.55,14.28,14.28,0,0,0,178.7,56.29Z" transform="translate(-96.11 -5.81)"/><path class="cls-2" d="M225.57,67.46a15.74,15.74,0,1,1,15.74-15.74A15.76,15.76,0,0,1,225.57,67.46Zm0-30a14.26,14.26,0,1,0,14.26,14.26A14.28,14.28,0,0,0,225.57,37.46Z" transform="translate(-96.11 -5.81)"/><path class="cls-2" d="M250,37.29a15.74,15.74,0,1,1,15.74-15.74A15.76,15.76,0,0,1,250,37.29Zm0-30a14.26,14.26,0,1,0,14.26,14.26A14.28,14.28,0,0,0,250,7.29Z" transform="translate(-96.11 -5.81)"/><path class="cls-2" d="M289.18,57.32a15.74,15.74,0,1,1,15.74-15.74A15.76,15.76,0,0,1,289.18,57.32Zm0-30a14.26,14.26,0,1,0,14.26,14.26A14.28,14.28,0,0,0,289.18,27.32Z" transform="translate(-96.11 -5.81)"/><path class="cls-2" d="M301.68,102.65a15.74,15.74,0,1,1,15.74-15.74A15.76,15.76,0,0,1,301.68,102.65Zm0-30A14.27,14.27,0,1,0,316,86.91,14.28,14.28,0,0,0,301.68,72.64Z" transform="translate(-96.11 -5.81)"/><path class="cls-2" d="M336.91,69.05a15.74,15.74,0,1,1,15.74-15.74A15.76,15.76,0,0,1,336.91,69.05Zm0-30a14.26,14.26,0,1,0,14.26,14.26A14.28,14.28,0,0,0,336.91,39.05Z" transform="translate(-96.11 -5.81)"/><path class="cls-2" d="M354.64,109.42a15.74,15.74,0,1,1,15.74-15.74A15.76,15.76,0,0,1,354.64,109.42Zm0-30A14.27,14.27,0,1,0,368.9,93.68,14.28,14.28,0,0,0,354.64,79.41Z" transform="translate(-96.11 -5.81)"/><path class="cls-2" d="M362.34,165a15.74,15.74,0,1,1,15.74-15.74A15.76,15.76,0,0,1,362.34,165Zm0-30a14.27,14.27,0,1,0,14.26,14.26A14.28,14.28,0,0,0,362.34,135Z" transform="translate(-96.11 -5.81)"/><path class="cls-18" d="M271.64,312.55a6.7,6.7,0,0,1-6,0c-1.67-1-1.68-2.53,0-3.48a6.64,6.64,0,0,1,6,0C273.29,310,273.3,311.59,271.64,312.55Z" transform="translate(-96.11 -5.81)"/><path class="cls-18" d="M293.58,297a6.67,6.67,0,0,1-6,0c-1.67-1-1.68-2.52,0-3.48a6.67,6.67,0,0,1,6,0C295.23,294.46,295.24,296,293.58,297Z" transform="translate(-96.11 -5.81)"/><polygon class="cls-33" points="161.67 266.09 161.67 197.13 161.82 196.93 200.77 145.28 200.92 145.21 249.72 120.99 254.71 102.32 256.14 102.7 250.97 122.02 201.74 146.45 163.15 197.63 163.15 263.47 179.52 253.57 179.52 264.7 178.04 264.7 178.04 256.19 161.67 266.09"/><rect class="cls-34" x="266.21" y="219.36" width="42.57" height="1.48" transform="translate(-164.07 145.37) rotate(-26.47)"/><path class="cls-18" d="M277.79,272.34a6.67,6.67,0,0,1-6,0c-1.67-1-1.68-2.52,0-3.48a6.64,6.64,0,0,1,6,0C279.44,269.82,279.45,271.38,277.79,272.34Z" transform="translate(-96.11 -5.81)"/><path class="cls-18" d="M212.24,283.88a6.67,6.67,0,0,1-6,0c-1.67-1-1.67-2.52,0-3.48a6.65,6.65,0,0,1,6,0C213.89,281.36,213.9,282.92,212.24,283.88Z" transform="translate(-96.11 -5.81)"/><path class="cls-18" d="M234,304.15a6.67,6.67,0,0,1-6,0c-1.67-1-1.67-2.52,0-3.48a6.65,6.65,0,0,1,6,0C235.6,301.63,235.61,303.19,234,304.15Z" transform="translate(-96.11 -5.81)"/><polygon class="cls-18" points="134.64 314.51 133.16 314.51 133.16 307.36 148.15 298.61 148.15 288.06 149.62 288.06 149.62 299.46 134.64 308.21 134.64 314.51"/><path class="cls-18" d="M233.07,322.62a6.67,6.67,0,0,1-6,0c-1.67-1-1.67-2.52,0-3.48a6.62,6.62,0,0,1,6,0C234.72,320.1,234.73,321.66,233.07,322.62Z" transform="translate(-96.11 -5.81)"/><path class="cls-18" d="M248,298.64c0,1.92-1.36,2.69-3,1.72a6.65,6.65,0,0,1-3-5.21c0-1.92,1.36-2.69,3-1.72A6.66,6.66,0,0,1,248,298.64Z" transform="translate(-96.11 -5.81)"/><polygon class="cls-18" points="197.37 308.75 195.89 308.75 195.89 302.45 172.66 289.11 172.66 277.71 174.14 277.71 174.14 288.25 197.37 301.6 197.37 308.75"/><path class="cls-18" d="M289.68,316.86a6.67,6.67,0,0,0,6,0c1.67-1,1.68-2.52,0-3.48a6.64,6.64,0,0,0-6,0C288,314.34,288,315.9,289.68,316.86Z" transform="translate(-96.11 -5.81)"/><path class="cls-18" d="M266.49,288.29c0,1.91,1.35,2.69,3,1.72a6.65,6.65,0,0,0,3-5.21c0-1.92-1.35-2.69-3-1.73A6.67,6.67,0,0,0,266.49,288.29Z" transform="translate(-96.11 -5.81)"/><polygon class="cls-18" points="105.59 307.1 104.11 307.1 104.11 295.72 131.04 280.19 131.04 272.05 132.51 272.05 132.51 281.04 105.59 296.58 105.59 307.1"/><path class="cls-18" d="M204,315.21a6.64,6.64,0,0,1-6,0c-1.67-1-1.68-2.52,0-3.48a6.7,6.7,0,0,1,6,0C205.67,312.7,205.67,314.26,204,315.21Z" transform="translate(-96.11 -5.81)"/><path class="cls-18" d="M230.91,277.84c0,1.92-1.35,2.69-3,1.73a6.68,6.68,0,0,1-3-5.22c0-1.91,1.36-2.69,3-1.72A6.65,6.65,0,0,1,230.91,277.84Z" transform="translate(-96.11 -5.81)"/><path class="cls-18" d="M230.93,256c0,1.92-1.36,2.69-3,1.72a6.65,6.65,0,0,1-3-5.21c0-1.92,1.35-2.69,3-1.73A6.68,6.68,0,0,1,230.93,256Z" transform="translate(-96.11 -5.81)"/><path class="cls-18" d="M230.93,213.49c0,1.92-1.36,2.69-3,1.72a6.64,6.64,0,0,1-3-5.21c0-1.92,1.35-2.69,3-1.72A6.65,6.65,0,0,1,230.93,213.49Z" transform="translate(-96.11 -5.81)"/><path class="cls-18" d="M243.35,150c0,1.92-1.35,2.69-3,1.72a6.66,6.66,0,0,1-3-5.21c0-1.92,1.36-2.69,3-1.73A6.67,6.67,0,0,1,243.35,150Z" transform="translate(-96.11 -5.81)"/><path class="cls-18" d="M270.57,213.88a6.67,6.67,0,0,1-3,5.22c-1.67,1-3,.19-3-1.72a6.65,6.65,0,0,1,3-5.22C269.21,211.2,270.57,212,270.57,213.88Z" transform="translate(-96.11 -5.81)"/><path class="cls-18" d="M270.19,229.07a6.67,6.67,0,0,1-3,5.22c-1.67,1-3,.19-3-1.73a6.65,6.65,0,0,1,3-5.21C268.84,226.38,270.19,227.16,270.19,229.07Z" transform="translate(-96.11 -5.81)"/><ellipse class="cls-18" cx="267.91" cy="162.98" rx="4.26" ry="2.46" transform="translate(-104.11 306.2) rotate(-59.69)"/><path class="cls-18" d="M257.11,116.87a6.65,6.65,0,0,1-3,5.21c-1.67,1-3,.2-3-1.72a6.65,6.65,0,0,1,3-5.21C255.76,114.18,257.11,115,257.11,116.87Z" transform="translate(-96.11 -5.81)"/><polygon class="cls-35" points="171.84 158.13 170.66 157.25 192.04 128.56 192.19 128.48 222.99 112.81 236.89 62.22 238.32 62.62 224.24 113.83 223.95 113.98 193.01 129.72 171.84 158.13"/><polygon class="cls-36" points="157.47 114.13 156.3 113.23 178.75 84.08 187.44 49.32 188.88 49.68 180.11 84.74 180.02 84.86 157.47 114.13"/><polygon class="cls-37" points="170.57 212.13 169.39 211.25 193.49 179.1 193.65 179.03 252.74 149.39 253.41 150.71 194.47 180.27 170.57 212.13"/><polygon class="cls-38" points="132.9 247.5 131.42 247.5 131.42 224.76 123.52 208.59 96.13 196.33 96.73 194.98 124.61 207.45 132.9 224.42 132.9 247.5"/><rect class="cls-39" x="153.18" y="30.83" width="1.48" height="61.67"/><path class="cls-2" d="M322,197.64a5.32,5.32,0,0,0-3.17.91,5.18,5.18,0,0,0-1.38,1.53,4.94,4.94,0,0,0-.74,1.94h7.67l-.31,1.51h-7.54c0,.16,0,.31,0,.45,0,.57,0,.92,0,1h7.24l-.32,1.51h-6.68a5,5,0,0,0,2.27,3.65,5.31,5.31,0,0,0,2.8.78,4.6,4.6,0,0,0,3.28-1.11v2.32a7.37,7.37,0,0,1-3.11.65q-5.07,0-6.86-4.22a11.42,11.42,0,0,1-.62-2.07h-1.72l.32-1.51h1.18c0-.31,0-.65,0-1,0-.15,0-.3,0-.46h-1.47l.32-1.51h1.3a7.14,7.14,0,0,1,3.63-5.26,8.17,8.17,0,0,1,4-1,6.51,6.51,0,0,1,3.52.91l-.45,2.09A4.81,4.81,0,0,0,322,197.64Z" transform="translate(-96.11 -5.81)"/><path class="cls-2" d="M361.08,138.8V141h2.24V138.8h1.76v2.38a4.79,4.79,0,0,1,1.26.37,3.88,3.88,0,0,1,1.79,1.53,4.1,4.1,0,0,1,.65,2.18,3.68,3.68,0,0,1-.58,2,4.07,4.07,0,0,1-1.73,1.5,4.29,4.29,0,0,1,2.3,1.5,4,4,0,0,1,.8,2.49,4.87,4.87,0,0,1-.48,2.15,4.18,4.18,0,0,1-1.21,1.54,5.13,5.13,0,0,1-1.81.82q-.45.1-1,.18v2.34h-1.76v-2.25h-2.24v2.25h-1.77v-2.25h-2.18V141h2.18V138.8ZM359.31,148h3.57a8.35,8.35,0,0,0,2.08-.19,2.31,2.31,0,0,0,1.25-.83,2.35,2.35,0,0,0,.42-1.43,2.69,2.69,0,0,0-.39-1.45,2,2,0,0,0-1.13-.85,9.06,9.06,0,0,0-2.5-.23h-3.3Zm0,7.6h4.11a10.12,10.12,0,0,0,1.48-.07,3.59,3.59,0,0,0,1.26-.45,2.4,2.4,0,0,0,.83-.92,2.83,2.83,0,0,0,.33-1.39,2.7,2.7,0,0,0-.48-1.6,2.46,2.46,0,0,0-1.31-.95,7.84,7.84,0,0,0-2.41-.28h-3.81Z" transform="translate(-96.11 -5.81)"/><path class="cls-2" d="M353.29,92h3.54v1.66h-3.19a2.52,2.52,0,0,1,.21,1,5.32,5.32,0,0,1-.47,2.07,7.81,7.81,0,0,1-1.53,2.23,5.87,5.87,0,0,1,1.62-.25,8.94,8.94,0,0,1,2.1.28,13.73,13.73,0,0,0,2.62.46,5.34,5.34,0,0,0,2.15-.63l.66,1.85a10.65,10.65,0,0,1-1.6.58,4.9,4.9,0,0,1-1.13.13,5.2,5.2,0,0,1-1-.09,13.9,13.9,0,0,1-1.45-.41c-.77-.23-1.27-.37-1.49-.42a6.41,6.41,0,0,0-1.06-.09,5.83,5.83,0,0,0-1.73.28,6.47,6.47,0,0,0-1.66.77l-.78-2a5.29,5.29,0,0,0,1.83-1.7,4.71,4.71,0,0,0,.76-2.7,5.32,5.32,0,0,0-.2-1.4h-2.2V92h1.73a18.4,18.4,0,0,1-.47-1.84,6.24,6.24,0,0,1-.1-1.13,4.34,4.34,0,0,1,1.73-3.65,5.43,5.43,0,0,1,3.37-1A5,5,0,0,1,359,85.4a4.91,4.91,0,0,1,1.62,3.14l-2,.31a3.35,3.35,0,0,0-1-2.13,3,3,0,0,0-4.08,0,2.61,2.61,0,0,0-.82,1.94A11.23,11.23,0,0,0,353.29,92Z" transform="translate(-96.11 -5.81)"/><path class="cls-2" d="M301.06,97.31v-2a7.15,7.15,0,0,1-2.47-.68A4.25,4.25,0,0,1,297,93a5.68,5.68,0,0,1-.81-2.66l2-.38a5.1,5.1,0,0,0,.83,2.39,2.93,2.93,0,0,0,2.05,1.2V87.14a8.43,8.43,0,0,1-2.56-1,3.69,3.69,0,0,1-1.48-1.5A4.73,4.73,0,0,1,298,79a5.27,5.27,0,0,1,3-1.1v-1h1.19v1a5,5,0,0,1,2.79,1,4.59,4.59,0,0,1,1.6,3l-2.09.31a3.5,3.5,0,0,0-.75-1.83,2.72,2.72,0,0,0-1.55-.83v5.83a13.85,13.85,0,0,1,2,.6,4.85,4.85,0,0,1,1.54,1,4.1,4.1,0,0,1,.92,1.41,4.94,4.94,0,0,1,.32,1.78,4.87,4.87,0,0,1-4.8,5v2Zm0-17.72a3,3,0,0,0-1.86,1,2.6,2.6,0,0,0-.68,1.81,2.65,2.65,0,0,0,.57,1.73,4.06,4.06,0,0,0,2,1.11Zm1.19,14a3,3,0,0,0,1.95-1,3.18,3.18,0,0,0,.77-2.17,2.75,2.75,0,0,0-.55-1.77,4.73,4.73,0,0,0-2.17-1.19Z" transform="translate(-96.11 -5.81)"/><path class="cls-2" d="M287.22,49.76V46.11h-4.66V44.55h4.66V42.94h-4.66V41.27h3.83l-4.56-8h2.24l3.26,5.8a16.14,16.14,0,0,1,.86,1.73c.17-.39.48-1,.92-1.83l3.08-5.7h2.4l-4.55,8h3.83v1.67h-4.63v1.61h4.63v1.56h-4.63v3.65Z" transform="translate(-96.11 -5.81)"/><path class="cls-2" d="M136.22,98.05a4.92,4.92,0,0,0-4.56,2.44,4.93,4.93,0,0,0-.74,2h7.67l-.31,1.5h-7.54c0,.16,0,.31,0,.45,0,.58,0,.92,0,1H138l-.31,1.51H131a5,5,0,0,0,2.27,3.65,5.31,5.31,0,0,0,2.8.78,4.65,4.65,0,0,0,3.28-1.1v2.31a7.21,7.21,0,0,1-3.1.65c-3.39,0-5.68-1.4-6.87-4.22a11.42,11.42,0,0,1-.62-2.07H127l.32-1.51h1.18c0-.31,0-.65,0-1,0-.15,0-.3,0-.46H127l.32-1.5h1.3a7.15,7.15,0,0,1,3.63-5.26,8.2,8.2,0,0,1,4-1,6.4,6.4,0,0,1,3.52.91l-.45,2.09A4.74,4.74,0,0,0,136.22,98.05Z" transform="translate(-96.11 -5.81)"/><path class="cls-2" d="M249,10.84v2.25h2.24V10.84H253v2.38a5.21,5.21,0,0,1,1.26.37,3.84,3.84,0,0,1,1.79,1.54,4,4,0,0,1,.65,2.17,3.76,3.76,0,0,1-.57,2,4.23,4.23,0,0,1-1.73,1.51,4.29,4.29,0,0,1,2.29,1.49,4,4,0,0,1,.81,2.5,4.91,4.91,0,0,1-.49,2.15,4.22,4.22,0,0,1-1.21,1.53,5.13,5.13,0,0,1-1.81.82,6.74,6.74,0,0,1-1,.18v2.34h-1.76V29.56H249v2.25h-1.76V29.56H245.1V13.09h2.18V10.84ZM247.28,20h3.56a7.84,7.84,0,0,0,2.08-.19,2.16,2.16,0,0,0,1.67-2.26,2.63,2.63,0,0,0-.39-1.44,2,2,0,0,0-1.12-.86,9.62,9.62,0,0,0-2.51-.23h-3.29Zm0,7.61h4.1a9.65,9.65,0,0,0,1.48-.08,3.59,3.59,0,0,0,1.26-.45,2.33,2.33,0,0,0,.83-.92,3,3,0,0,0-.14-3,2.49,2.49,0,0,0-1.31-.95,8.21,8.21,0,0,0-2.41-.28h-3.81Z" transform="translate(-96.11 -5.81)"/><path class="cls-2" d="M177.52,69.52h3.54v1.66h-3.19a2.55,2.55,0,0,1,.21,1,5.22,5.22,0,0,1-.46,2.07,7.66,7.66,0,0,1-1.54,2.23,5.87,5.87,0,0,1,1.62-.25,8.94,8.94,0,0,1,2.1.28,13.73,13.73,0,0,0,2.62.46,5.33,5.33,0,0,0,2.16-.63l.65,1.86a11.13,11.13,0,0,1-1.6.57,4.9,4.9,0,0,1-1.13.13,5.36,5.36,0,0,1-1-.09,14.66,14.66,0,0,1-1.45-.41c-.77-.23-1.26-.37-1.49-.42a6.23,6.23,0,0,0-1.06-.09,6.1,6.1,0,0,0-1.72.28,6.9,6.9,0,0,0-1.67.77l-.78-2a5.31,5.31,0,0,0,1.84-1.7,4.71,4.71,0,0,0,.75-2.7,5.3,5.3,0,0,0-.19-1.4h-2.2V69.52h1.73c-.25-.84-.41-1.45-.48-1.84a7.28,7.28,0,0,1-.1-1.12,4.35,4.35,0,0,1,1.73-3.66,5.52,5.52,0,0,1,3.38-1A5,5,0,0,1,183.18,63a4.86,4.86,0,0,1,1.62,3.14l-2,.3a3.34,3.34,0,0,0-1-2.12,3,3,0,0,0-4.08,0,2.63,2.63,0,0,0-.83,1.94A11.23,11.23,0,0,0,177.52,69.52Z" transform="translate(-96.11 -5.81)"/><path class="cls-2" d="M138.7,164.08v-2a7.37,7.37,0,0,1-2.47-.68,4.25,4.25,0,0,1-1.64-1.58,5.68,5.68,0,0,1-.81-2.66l2-.38a5.14,5.14,0,0,0,.83,2.39,2.93,2.93,0,0,0,2,1.2v-6.44a8.39,8.39,0,0,1-2.56-1,3.69,3.69,0,0,1-1.48-1.5,4.73,4.73,0,0,1,1-5.66,5.27,5.27,0,0,1,3-1.1v-1h1.19v1a4.92,4.92,0,0,1,2.79,1,4.56,4.56,0,0,1,1.6,3l-2.09.32a3.43,3.43,0,0,0-.75-1.83,2.79,2.79,0,0,0-1.55-.84v5.84a15.79,15.79,0,0,1,2,.59,5.21,5.21,0,0,1,1.54,1,4.15,4.15,0,0,1,.92,1.42,4.94,4.94,0,0,1,.32,1.78,4.87,4.87,0,0,1-4.8,5v2Zm0-17.71a3,3,0,0,0-1.86.95,2.6,2.6,0,0,0-.68,1.81,2.67,2.67,0,0,0,.57,1.73,4.06,4.06,0,0,0,2,1.11Zm1.19,14a3,3,0,0,0,2-1,3.18,3.18,0,0,0,.77-2.17,2.75,2.75,0,0,0-.55-1.77,4.83,4.83,0,0,0-2.17-1.2Z" transform="translate(-96.11 -5.81)"/><path class="cls-2" d="M328.52,60.89V59.25l7.6-8.72q-1.29.06-2.28.06H329V49h9.76v1.34l-6.46,7.57L331,59.25c.91-.07,1.76-.11,2.55-.11h5.52v1.75Z" transform="translate(-96.11 -5.81)"/><path class="cls-2" d="M341.08,54.44l-1.46,1.23V53.9l1.46-1.24V44.41h2V51l1.52-1.29v1.76l-1.52,1.3v8.17h-2Z" transform="translate(-96.11 -5.81)"/><path class="cls-2" d="M224,52.81v1.62h6.6V56H224v4.14h-2.18V56h-1.12V54.43h1.12V52.81h-1.12V50.92h1.12V43.65H227a9.55,9.55,0,0,1,3.35.45,3.64,3.64,0,0,1,1.83,1.56,4.66,4.66,0,0,1,.69,2.48,4.51,4.51,0,0,1-.51,2.27A4,4,0,0,1,231,51.85a5.61,5.61,0,0,1-1.92.74,11.08,11.08,0,0,1-2.25.22Zm2.83-1.89a8.23,8.23,0,0,0,1.44-.12,3.48,3.48,0,0,0,1.21-.43,2.39,2.39,0,0,0,.82-.85,2.77,2.77,0,0,0,.3-1.38,2.49,2.49,0,0,0-.28-1.23,2.3,2.3,0,0,0-.75-.83,3.22,3.22,0,0,0-1.12-.46,6,6,0,0,0-1.38-.15H224v5.45Z" transform="translate(-96.11 -5.81)"/><path class="cls-2" d="M188.52,116h-9.63a3.33,3.33,0,0,0-.1.88,3.15,3.15,0,0,0,.77,2.17,3.19,3.19,0,0,0,2.55,1,3.28,3.28,0,0,0,2.51-1,3.6,3.6,0,0,0,.95-2.06l2,.38a4.34,4.34,0,0,1-1.66,3.2,6,6,0,0,1-3.81,1.17,6.58,6.58,0,0,1-2.3-.42,4.84,4.84,0,0,1-1.8-1.11,4.9,4.9,0,0,1-1.33-3.51,6.59,6.59,0,0,1,0-.75h-.7v-1.89h1.42a4.61,4.61,0,0,1,2-1.56c.19-.09,1-.31,2.32-.69h-5.74V110h9a2.82,2.82,0,0,0-.46-2.93,3,3,0,0,0-2.41-.9A2.77,2.77,0,0,0,180,107a3.43,3.43,0,0,0-.76,1.83l-2.09-.31a4.61,4.61,0,0,1,1.6-3,4.87,4.87,0,0,1,3.25-1,5.62,5.62,0,0,1,3.77,1.1,4.43,4.43,0,0,1,1.53,3.5,5,5,0,0,1-.09,1h1.35v1.89h-2.26a3.83,3.83,0,0,1-1,.81,20.17,20.17,0,0,1-3.74,1.25c-.22.06-.42.12-.61.19h7.62Z" transform="translate(-96.11 -5.81)"/><path class="cls-2" d="M171.31,203.39V186.91h2v9.4l4.79-4.86h2.62l-4.56,4.43,5,7.51h-2.49l-4-6.11-1.43,1.37v4.74Z" transform="translate(-96.11 -5.81)"/><path class="cls-2" d="M182.78,203.39V191.45h1.83v1.81a4.86,4.86,0,0,1,1.28-1.67,2.28,2.28,0,0,1,1.3-.41,4,4,0,0,1,2.08.65l-.7,1.88a2.91,2.91,0,0,0-1.48-.44,1.9,1.9,0,0,0-1.19.4,2.14,2.14,0,0,0-.75,1.11,7.69,7.69,0,0,0-.34,2.36v6.25Z" transform="translate(-96.11 -5.81)"/></svg>