<?xml version="1.0" encoding="UTF-8" standalone="no"?>
<svg
   version="1.1"
   width="256"
   height="256"
   viewBox="0 0 256 256"
   xml:space="preserve"
   id="svg162"
   sodipodi:docname="logo.svg"
   inkscape:version="1.2.1 (2ed6d7ae0b, 2022-08-22, custom)"
   xmlns:inkscape="http://www.inkscape.org/namespaces/inkscape"
   xmlns:sodipodi="http://sodipodi.sourceforge.net/DTD/sodipodi-0.dtd"
   xmlns="http://www.w3.org/2000/svg"
   xmlns:svg="http://www.w3.org/2000/svg"><sodipodi:namedview
   id="namedview164"
   pagecolor="#ffffff"
   bordercolor="#666666"
   borderopacity="1.0"
   inkscape:showpageshadow="2"
   inkscape:pageopacity="0.0"
   inkscape:pagecheckerboard="0"
   inkscape:deskcolor="#d1d1d1"
   showgrid="false"
   inkscape:zoom="1.8317088"
   inkscape:cx="90.079819"
   inkscape:cy="167.33009"
   inkscape:window-width="1920"
   inkscape:window-height="1026"
   inkscape:window-x="0"
   inkscape:window-y="26"
   inkscape:window-maximized="1"
   inkscape:current-layer="svg162" />

<defs
   id="defs148">
</defs>

<path
   style="fill:#3e2b97;fill-opacity:1;stroke-width:0.311057"
   d="m 119.60146,252.88069 c -0.68433,-0.0666 -2.85395,-0.27265 -4.82139,-0.45793 -11.3803,-1.07172 -25.326018,-4.6334 -36.009956,-9.19678 C 39.853592,226.60372 11.86072,192.25981 3.7584539,151.19563 -1.1604746,126.26534 1.5160271,100.76685 11.517042,77.28113 21.128213,54.71089 37.55958,35.05044 58.121587,21.51789 c 6.010908,-3.95598 9.24983,-5.79623 15.353797,-8.72354 33.704076,-16.16359 73.943596,-16.34366 107.454206,-0.48086 4.02404,1.90485 5.06558,2.87863 5.5397,5.17932 0.44435,2.15619 -0.83745,4.62732 -2.96261,5.71149 -1.95459,0.99716 -3.16573,0.80242 -7.66187,-1.23194 C 144.81616,7.9329 110.487,7.92364 79.619039,21.94636 59.53103,31.07198 41.696667,46.75972 29.777796,65.7885 20.496289,80.60666 14.7904,97.34446 12.883177,115.3476 c -0.760773,7.18128 -0.470001,20.94937 0.589565,27.91604 3.582763,23.55674 13.556459,44.51367 29.237184,61.43378 13.915644,15.01551 29.716434,25.25186 48.740864,31.57616 25.6303,8.5203 53.59809,7.72333 78.69745,-2.24256 19.77198,-7.85061 37.19056,-21.24477 50.05018,-38.48648 12.2175,-16.38079 19.56214,-35.03294 22.1789,-56.32464 0.53673,-4.36726 0.53024,-19.84449 -0.0104,-24.72904 -1.85425,-16.75345 -7.29758,-32.89108 -15.95848,-47.31148 -2.2196,-3.69563 -2.44733,-4.22532 -2.44733,-5.69237 0,-1.87735 0.52602,-3.05513 1.86931,-4.18543 2.07881,-1.7492 4.88429,-1.70192 6.9562,0.11724 2.15704,1.89391 8.43857,13.46955 11.8119,21.76706 4.14961,10.20696 6.77322,20.12813 8.30801,31.41676 0.9273,6.82037 1.17169,20.58377 0.49159,27.68409 -2.07177,21.6293 -9.03582,41.07799 -21.16241,59.10085 -20.57699,30.58205 -53.48883,50.58018 -90.39368,54.92567 -3.94427,0.46443 -19.27817,0.85564 -22.24058,0.56741 z"
   id="path1777" /><path
   style="fill:#3e2b97;fill-opacity:1;stroke-width:0.311057"
   d="m 41.741581,100.98456 c -1.555175,-0.56346 -3.036699,-2.19034 -3.499321,-3.842663 -0.369416,-1.319424 -0.342286,-1.637865 0.297653,-3.493663 0.387265,-1.123053 1.64742,-4.001575 2.800346,-6.396715 7.519617,-15.621593 18.839647,-28.623123 33.313447,-38.261897 6.409932,-4.268669 12.33208,-7.282976 19.851438,-10.104157 2.964536,-1.11226 3.784345,-1.299174 5.18777,-1.182791 4.933346,0.409112 6.656156,6.678901 2.644876,9.625448 -0.4277,0.314175 -2.457353,1.206015 -4.510329,1.981866 -22.315259,8.433271 -40.273736,25.967633 -48.973385,47.816813 -0.813707,2.043624 -2.248442,3.468419 -3.975586,3.948059 -1.432264,0.39774 -1.820732,0.38656 -3.136909,-0.0903 z"
   id="path1779" /><path
   style="fill:#3e2b97;fill-opacity:1;stroke-width:0.311057"
   d="m 207.23876,57.529039 c -2.5897,-1.316528 -3.1811,-3.003624 -3.18356,-9.081894 l -0.002,-4.277036 h -4.87182 c -4.58235,0 -4.94757,-0.04439 -6.14672,-0.747141 -2.90936,-1.705 -3.56684,-5.79138 -1.32526,-8.236785 1.42692,-1.556666 2.78553,-1.888841 7.75571,-1.896241 l 4.58809,-0.0068 0.002,-4.277036 c 9.7e-4,-2.352369 0.14631,-4.797597 0.32302,-5.433839 0.38258,-1.377557 1.58883,-2.890062 2.80743,-3.520225 1.3786,-0.712908 4.04457,-0.589228 5.26952,0.244465 2.34406,1.595352 2.77832,2.975755 2.78893,8.865128 l 0.007,4.121507 4.58809,0.0068 c 3.80704,0.0057 4.80605,0.105811 5.86843,0.588257 3.28797,1.493129 4.25086,5.642714 1.92425,8.29258 -1.62798,1.854167 -2.17336,1.999331 -7.51135,1.999331 h -4.80424 l -0.11447,4.89915 c -0.10315,4.414737 -0.1849,5.022701 -0.82681,6.148722 -1.50039,2.631966 -4.55784,3.622054 -7.13666,2.311058 z"
   id="path1781" /><path
   style="fill:#ffffff;stroke-width:0.311057"
   d="m 125.42527,224.37765 c -2.06981,-1.02019 -3.45259,-3.68419 -3.01485,-5.8083 0.33413,-1.62137 1.55358,-3.19264 3.00283,-3.86916 1.07937,-0.50386 2.25709,-0.66341 6.00838,-0.81398 31.10024,-1.24833 58.93765,-19.46682 72.77165,-47.62619 3.41859,-6.9586 5.4543,-12.91308 7.0187,-20.52976 0.87441,-4.25725 1.55073,-10.2853 1.55282,-13.84014 0.003,-4.68885 0.84523,-6.72309 3.23359,-7.80775 2.55563,-1.16063 5.40818,-0.40047 6.84524,1.82414 1.09738,1.69877 1.1798,2.5428 0.81419,8.33725 -0.89419,14.17173 -4.03817,25.75514 -10.37843,38.23741 -12.16898,23.95748 -34.42211,42.09351 -60.23929,49.09427 -10.07389,2.7317 -24.73873,4.21981 -27.61483,2.80221 z"
   id="path1783" /><path
   style="fill:#3e2b97;fill-opacity:1;stroke-width:0.311057"
   d="m 127.14889,224.61955 c -1.78067,-0.26529 -2.95958,-1.08701 -3.88739,-2.70955 -0.92469,-1.61707 -0.90138,-3.31368 0.0683,-4.96822 1.22893,-2.09703 2.50937,-2.54287 8.40294,-2.92587 5.75442,-0.37395 6.58084,-0.46831 11.19805,-1.27847 13.49145,-2.36731 27.19675,-8.57865 38.1045,-17.26924 1.45419,-1.1586 4.67984,-4.14512 7.16811,-6.63671 7.72289,-7.73319 13.25695,-15.87259 17.81921,-26.2082 4.00644,-9.07643 6.05614,-17.79349 6.75152,-28.7132 0.18521,-2.90839 0.48236,-5.84446 0.66033,-6.5246 1.15275,-4.40537 7.7176,-4.85596 9.62295,-0.66049 0.90273,1.98775 0.72194,7.78635 -0.51495,16.5168 -2.69372,19.01319 -12.10048,37.90429 -26.05414,52.32312 -12.14435,12.54922 -28.16052,21.95112 -44.38134,26.05298 -8.5341,2.15807 -20.75498,3.62785 -24.95804,3.00165 z"
   id="path1785" /><path
   style="fill:#3e2b97;fill-opacity:1;stroke-width:0.311057"
   d="m 125.47543,188.54467 c -0.70418,-0.32916 -1.68401,-1.1273 -2.1774,-1.77366 l -0.89706,-1.1752 -0.0949,-6.63509 -0.0949,-6.63508 h -6.22036 c -7.22454,0 -9.37889,-0.35663 -13.18643,-2.18287 -4.698579,-2.25363 -8.275015,-5.96129 -10.544313,-10.93121 -1.95668,-4.28527 -1.897967,-3.34381 -1.897967,-30.43392 0,-27.49767 -0.08491,-26.27009 2.140919,-30.950179 2.629197,-5.528204 7.108876,-9.478274 13.100881,-11.552031 2.37806,-0.823018 2.80239,-0.866628 9.565,-0.983047 l 7.07655,-0.121823 v -6.20399 c 0,-5.610364 0.0601,-6.321825 0.62826,-7.43548 1.84368,-3.613898 7.03005,-3.897681 9.27557,-0.507532 0.82033,1.238498 0.82848,1.306775 0.92287,7.727814 l 0.0952,6.478276 6.12592,0.0054 c 7.36936,0.0065 9.34066,0.353714 13.43576,2.366516 2.47446,1.216233 3.38504,1.88764 5.59903,4.128358 2.97077,3.006641 4.35262,5.144578 5.48113,8.480188 0.88617,2.61928 1.34095,6.43641 0.97609,8.19253 -0.32734,1.5755 -1.47388,3.04532 -2.90542,3.72463 -1.65453,0.78513 -4.1002,0.53167 -5.55156,-0.57534 -1.51639,-1.15661 -2.0251,-2.27749 -2.35789,-5.1954 -0.49367,-4.3284 -2.71002,-7.491328 -6.49202,-9.264669 l -1.74814,-0.819686 h -18.04132 -18.04131 l -1.95701,0.903677 c -2.43057,1.122348 -4.71197,3.522888 -5.71969,6.018378 l -0.72184,1.78754 -0.0928,22.55164 c -0.0981,23.85074 -0.0297,25.29817 1.32257,27.96667 0.91213,1.80001 3.43114,4.18581 5.37738,5.09301 1.47625,0.68813 1.53054,0.69002 19.83267,0.69002 h 18.35237 l 1.66111,-0.87487 c 3.8411,-2.02301 5.77247,-4.86478 6.26979,-9.22521 0.35061,-3.07406 1.21836,-4.64243 3.09959,-5.60216 1.78688,-0.9116 3.63036,-0.82081 5.33929,0.26296 1.87812,1.19107 2.52595,2.59884 2.48337,5.39651 -0.14339,9.41976 -7.19039,18.08279 -16.64774,20.46543 -2.05674,0.51816 -3.49857,0.61987 -8.78736,0.61987 h -6.32692 v 6.12293 c 0,5.60376 -0.0559,6.2385 -0.6598,7.4859 -1.26286,2.60873 -4.45378,3.79906 -6.99721,2.6102 z"
   id="path1787" /></svg>
